<?xml version="1.0" encoding="UTF-8" standalone="no"?>
<!DOCTYPE svg PUBLIC "-//W3C//DTD SVG 1.1//EN" "http://www.w3.org/Graphics/SVG/1.1/DTD/svg11.dtd">
<svg width="100%" height="100%" viewBox="0 0 263 263" version="1.1" xmlns="http://www.w3.org/2000/svg" xmlns:xlink="http://www.w3.org/1999/xlink" xml:space="preserve" xmlns:serif="http://www.serif.com/" style="fill-rule:evenodd;clip-rule:evenodd;stroke-linejoin:round;stroke-miterlimit:2;">
    <g transform="matrix(0.683865,0.683865,-0.661874,0.661874,-58.3971,-301.883)">
        <g transform="matrix(0.707107,-0.707107,0.707107,0.707107,267.092,194.849)">
            <path d="M20.66,248.527C20.66,248.527 74.975,231.878 85.366,221.493C95.807,211.059 95.807,194.223 85.366,183.789C74.976,173.38 58.109,173.37 47.698,183.789C37.308,194.227 20.66,248.527 20.66,248.527Z" style="fill:rgb(255,45,85);fill-rule:nonzero;"/>
        </g>
        <path d="M409.454,68.456L409.463,184.305L374.697,219.071L386.289,300.155C386.289,300.155 412.848,253.082 439.141,236.414L437.283,246.2L475.109,244.228L472.764,233.901C507.799,247.616 525.317,300.155 525.317,300.155L536.897,219.063L502.138,184.305L502.13,68.458L455.8,-1.059L409.454,68.456ZM455.797,167.441C464.427,167.441 471.433,174.447 471.433,183.077C471.433,191.706 464.427,198.713 455.797,198.713C447.167,198.713 440.161,191.706 440.161,183.077C440.161,174.447 447.167,167.441 455.797,167.441ZM455.797,117.276C464.427,117.276 471.433,124.283 471.433,132.912C471.433,141.542 464.427,148.548 455.797,148.548C447.167,148.548 440.161,141.542 440.161,132.912C440.161,124.283 447.167,117.276 455.797,117.276ZM455.797,66.442C464.427,66.442 471.433,73.448 471.433,82.078C471.433,90.707 464.427,97.713 455.797,97.713C447.167,97.713 440.161,90.707 440.161,82.078C440.161,73.448 447.167,66.442 455.797,66.442Z" style="fill:rgb(255,45,85);fill-rule:nonzero;"/>
    </g>
</svg>
